<svg width="254" height="218" viewBox="0 0 254 218" fill="none" xmlns="http://www.w3.org/2000/svg">
<path d="M125.121 211.649L127 213.791L128.879 211.649C149.925 187.66 171.451 169.25 190.572 152.896C198.049 146.5 205.159 140.42 211.729 134.443C234.928 113.336 251.5 93.4002 251.5 65.8387C251.5 30.8515 223.064 2.5 188 2.5C159.078 2.5 134.665 21.7895 127 48.1816C119.335 21.7895 94.9222 2.5 66 2.5C30.9362 2.5 2.5 30.8515 2.5 65.8387C2.5 93.4002 19.0723 113.336 42.2714 134.443C48.8409 140.42 55.9507 146.5 63.4282 152.896C82.5494 169.25 104.075 187.66 125.121 211.649Z" fill="#AB0707" stroke="#AB0707" stroke-width="5"/>
</svg>
