<svg width="212" height="231" viewBox="0 0 212 231" fill="none" xmlns="http://www.w3.org/2000/svg">
<path d="M107.844 6.35161L105.964 4.20844L104.085 6.35161C86.6898 26.1862 68.9131 41.3955 53.0957 54.9286C46.9013 60.2284 41.0074 65.2712 35.5545 70.2339C16.3471 87.715 2.50004 104.331 2.50003 127.347C2.50003 156.55 26.2263 180.214 55.4822 180.214C79.1153 180.214 99.1401 164.772 105.964 143.443C112.789 164.772 132.813 180.214 156.446 180.214C185.702 180.214 209.429 156.55 209.429 127.347C209.429 104.331 195.581 87.7151 176.374 70.234C170.921 65.2712 165.027 60.2285 158.833 54.9286C143.015 41.3955 125.239 26.1862 107.844 6.35161Z" fill="black" stroke="black" stroke-width="5"/>
<path d="M76.5 228C111.857 199.714 89.0714 158.857 70.2143 143.143L106.357 102.286L142.5 143.143C123.643 158.857 100.857 199.714 136.214 228H76.5Z" fill="black" stroke="black" stroke-width="5"/>
</svg>
